<svg width="22" height="22" viewBox="0 0 22 22" fill="none" xmlns="http://www.w3.org/2000/svg">
<path d="M9.30466 15.1944C9.34578 15.1537 9.4013 15.1309 9.45916 15.1309C9.51701 15.1309 9.57253 15.1537 9.61365 15.1944L12.791 18.3718C14.2621 19.8429 16.7449 19.9987 18.3691 18.3718C19.9961 16.7448 19.8402 14.2647 18.3691 12.7937L15.1918 9.61631C15.107 9.53154 15.107 9.39209 15.1918 9.30733L16.2801 8.21904C16.3212 8.17833 16.3767 8.1555 16.4345 8.1555C16.4924 8.1555 16.5479 8.17833 16.589 8.21904L19.7664 11.3964C22.0797 13.7097 22.0797 17.453 19.7664 19.7636C17.4531 22.0741 13.7097 22.0769 11.3992 19.7636L8.22185 16.5862C8.13708 16.5015 8.13708 16.362 8.22185 16.2772L9.30466 15.1944ZM2.23357 2.2335C4.54685 -0.0797852 8.29021 -0.0797852 10.6008 2.2335L13.7808 5.41084C13.8215 5.45195 13.8444 5.50747 13.8444 5.56533C13.8444 5.62319 13.8215 5.67871 13.7808 5.71982L12.6953 6.80537C12.6105 6.89014 12.4711 6.89014 12.3863 6.80537L9.20896 3.62803C7.73787 2.15693 5.25505 2.00107 3.63083 3.62803C2.00388 5.25498 2.15974 7.73506 3.63083 9.20615L6.80818 12.3835C6.84889 12.4246 6.87173 12.4801 6.87173 12.538C6.87173 12.5958 6.84889 12.6514 6.80818 12.6925L5.7199 13.7808C5.63513 13.8655 5.49568 13.8655 5.41091 13.7808L2.23357 10.6034C-0.0769768 8.29014 -0.0769768 4.54678 2.23357 2.2335ZM8.31755 7.17998C8.35867 7.13927 8.41419 7.11643 8.47204 7.11643C8.5299 7.11643 8.58542 7.13927 8.62654 7.17998L14.8199 13.3706C14.8606 13.4117 14.8834 13.4672 14.8834 13.5251C14.8834 13.583 14.8606 13.6385 14.8199 13.6796L13.7371 14.7624C13.6523 14.8472 13.5129 14.8472 13.4281 14.7624L7.23748 8.57178C7.15271 8.48701 7.15271 8.34756 7.23748 8.26279L8.31755 7.17998Z" fill="#00952E"/>
</svg>
