<svg width="20" height="19" viewBox="0 0 20 19" fill="none" xmlns="http://www.w3.org/2000/svg">
<path d="M15.3125 0.0625C16.3071 0.0625 17.2609 0.457588 17.9642 1.16085C18.6674 1.86411 19.0625 2.81794 19.0625 3.8125V8.3125C19.0625 8.51141 18.9835 8.70218 18.8428 8.84283C18.7022 8.98348 18.5114 9.0625 18.3125 9.0625C18.1136 9.0625 17.9228 8.98348 17.7822 8.84283C17.6415 8.70218 17.5625 8.51141 17.5625 8.3125V3.8125C17.5625 3.51703 17.5043 3.22444 17.3912 2.95146C17.2782 2.67848 17.1124 2.43044 16.9035 2.22151C16.6946 2.01258 16.4465 1.84684 16.1735 1.73377C15.9006 1.6207 15.608 1.5625 15.3125 1.5625H4.6875C4.09076 1.5625 3.51847 1.79955 3.09651 2.22151C2.67455 2.64347 2.4375 3.21576 2.4375 3.8125V14.3125C2.4375 14.608 2.4957 14.9006 2.60877 15.1735C2.72184 15.4465 2.88758 15.6946 3.09651 15.9035C3.30544 16.1124 3.55348 16.2782 3.82646 16.3912C4.09944 16.5043 4.39203 16.5625 4.6875 16.5625H9.3125C9.51141 16.5625 9.70218 16.6415 9.84283 16.7822C9.98348 16.9228 10.0625 17.1136 10.0625 17.3125C10.0625 17.5114 9.98348 17.7022 9.84283 17.8428C9.70218 17.9835 9.51141 18.0625 9.3125 18.0625H4.6875C3.69294 18.0625 2.73911 17.6674 2.03585 16.9642C1.33259 16.2609 0.9375 15.3071 0.9375 14.3125V3.8125C0.9375 2.81794 1.33259 1.86411 2.03585 1.16085C2.73911 0.457588 3.69294 0.0625 4.6875 0.0625H15.3125ZM7 6.75C7 6.55109 7.07902 6.36032 7.21967 6.21967C7.36032 6.07902 7.55109 6 7.75 6H14.25C14.4489 6 14.6397 6.07902 14.7803 6.21967C14.921 6.36032 15 6.55109 15 6.75C15 6.94891 14.921 7.13968 14.7803 7.28033C14.6397 7.42098 14.4489 7.5 14.25 7.5H9.5605L16.7805 14.72C16.9171 14.8615 16.9926 15.051 16.9908 15.2477C16.989 15.4443 16.91 15.6324 16.7709 15.7714C16.6318 15.9104 16.4436 15.9891 16.247 15.9908C16.0503 15.9924 15.8609 15.9167 15.7195 15.78L8.5 8.561V13.25C8.5 13.4489 8.42098 13.6397 8.28033 13.7803C8.13968 13.921 7.94891 14 7.75 14C7.55109 14 7.36032 13.921 7.21967 13.7803C7.07902 13.6397 7 13.4489 7 13.25V6.75Z" fill="#00952E"/>
</svg>
