<svg width="435" height="186" viewBox="0 0 435 186" fill="none" xmlns="http://www.w3.org/2000/svg">
<path d="M227.136 62.008C220.206 62.008 214.398 64.318 209.712 68.872C205.026 73.426 202.716 79.102 202.716 85.9C202.716 92.698 205.026 98.374 209.712 102.928C214.398 107.482 220.206 109.792 227.136 109.792C232.218 109.792 236.706 108.538 240.666 106.096C244.692 103.654 247.596 100.354 249.51 96.196L237.762 91.84C235.848 95.734 231.888 98.176 227.136 98.176C223.77 98.176 220.998 96.988 218.688 94.678C216.444 92.302 215.322 89.332 215.322 85.834C215.322 82.336 216.444 79.432 218.688 77.122C220.998 74.746 223.77 73.558 227.136 73.558C231.888 73.558 235.848 76 237.762 79.894L249.51 75.604C247.596 71.446 244.692 68.146 240.666 65.704C236.64 63.262 232.152 62.008 227.136 62.008ZM268.777 109V91.246H286.135V109H298.213V62.8H286.135V80.158H268.777V62.8H256.699V109H268.777ZM317.035 109L319.807 102.136H337.429L340.135 109H352.741L333.601 62.8H323.635L304.429 109H317.035ZM328.651 80.026L333.205 91.51H324.031L328.651 80.026ZM365.173 73.888V109H377.251V73.888H390.385V62.8H352.039V73.888H365.173ZM409.999 91.84V103.258H420.097V91.84H431.515V81.742H420.097V70.324H409.999V81.742H398.515V91.84H409.999Z" fill="#00952E"/>
<rect x="1" y="40.9814" width="169.154" height="143.438" rx="53" fill="#28AF60" stroke="black" stroke-width="2"/>
<path d="M106.477 103.981C106.477 108.949 103.076 114.765 85.5904 114.765C68.1045 114.765 63.9097 109.979 63.9097 105.012C63.9097 100.044 68.2844 104.871 85.7702 104.871C103.256 104.871 106.477 99.0134 106.477 103.981Z" fill="black"/>
<path d="M55.3245 90.6548C55.3245 95.6176 51.1197 94.5793 45.6606 94.5793C40.2016 94.5793 35.5555 95.6176 35.5555 90.6548C35.5555 85.6921 39.981 81.6689 45.44 81.6689C50.8991 81.6689 55.3245 85.6921 55.3245 90.6548Z" fill="#0F0F0F"/>
<path d="M135.599 90.0557C135.599 95.0185 130.998 93.0332 125.539 93.0332C120.08 93.0332 115.83 95.0185 115.83 90.0557C115.83 85.0929 120.255 81.0698 125.714 81.0698C131.173 81.0698 135.599 85.0929 135.599 90.0557Z" fill="#0F0F0F"/>
<path fill-rule="evenodd" clip-rule="evenodd" d="M100 1C93.3726 1 88 6.37259 88 13V41.1801C88 47.8075 93.3726 53.1801 100 53.1801H162.197C163.965 57.8335 162.983 63.1797 159.492 66.9161C158.136 68.367 156.548 69.583 154.795 70.5147L147.098 74.6035C147.817 74.7142 148.553 74.8552 149.311 75.0005C153.708 75.8435 158.864 76.8318 165.957 72.8793C166.55 72.5487 167.092 72.1839 167.593 71.7948C172.749 67.7877 176.042 60.1109 176.991 53.1801H179.977C186.604 53.1801 191.977 47.8075 191.977 41.1801V13C191.977 6.37258 186.604 1 179.977 1H100Z" fill="white"/>
<path d="M162.197 53.1801L163.132 52.8249L162.887 52.1801H162.197V53.1801ZM159.492 66.9161L158.761 66.2332L158.761 66.2333L159.492 66.9161ZM154.795 70.5147L154.325 69.6316L154.795 70.5147ZM147.098 74.6035L146.629 73.7204L143.968 75.1338L146.946 75.5919L147.098 74.6035ZM149.311 75.0005L149.122 75.9826H149.122L149.311 75.0005ZM165.957 72.8793L166.444 73.7528L165.957 72.8793ZM167.593 71.7948L168.207 72.5844L167.593 71.7948ZM176.991 53.1801V52.1801H176.119L176 53.0444L176.991 53.1801ZM89 13C89 6.92487 93.9249 2 100 2V0C92.8203 0 87 5.82031 87 13H89ZM89 41.1801V13H87V41.1801H89ZM100 52.1801C93.9249 52.1801 89 47.2552 89 41.1801H87C87 48.3598 92.8203 54.1801 100 54.1801V52.1801ZM162.197 52.1801H100V54.1801H162.197V52.1801ZM160.222 67.5989C163.978 63.5799 165.034 57.83 163.132 52.8249L161.262 53.5352C162.897 57.837 161.989 62.7795 158.761 66.2332L160.222 67.5989ZM155.264 71.3978C157.115 70.4143 158.791 69.1305 160.222 67.5989L158.761 66.2333C157.48 67.6034 155.982 68.7518 154.325 69.6316L155.264 71.3978ZM147.567 75.4866L155.264 71.3978L154.325 69.6316L146.629 73.7204L147.567 75.4866ZM149.499 74.0184C148.744 73.8737 147.99 73.7291 147.25 73.6152L146.946 75.5919C147.644 75.6992 148.361 75.8366 149.122 75.9826L149.499 74.0184ZM165.47 72.0057C162.054 73.9093 159.14 74.606 156.571 74.7396C153.982 74.8741 151.705 74.4414 149.499 74.0184L149.122 75.9826C151.313 76.4026 153.813 76.8856 156.675 76.7369C159.556 76.5871 162.767 75.8018 166.444 73.7528L165.47 72.0057ZM166.979 71.0052C166.516 71.3653 166.016 71.7016 165.47 72.0057L166.444 73.7528C167.084 73.3959 167.669 73.0025 168.207 72.5844L166.979 71.0052ZM176 53.0444C175.071 59.8304 171.854 67.2174 166.979 71.0052L168.207 72.5844C173.645 68.358 177.013 60.3913 177.982 53.3157L176 53.0444ZM179.977 52.1801H176.991V54.1801H179.977V52.1801ZM190.977 41.1801C190.977 47.2552 186.052 52.1801 179.977 52.1801V54.1801C187.156 54.1801 192.977 48.3598 192.977 41.1801H190.977ZM190.977 13V41.1801H192.977V13H190.977ZM179.977 2C186.052 2 190.977 6.92487 190.977 13H192.977C192.977 5.8203 187.156 0 179.977 0V2ZM100 2H179.977V0H100V2Z" fill="black"/>
<path d="M125.368 14.988C128.056 14.988 130.036 15.66 131.308 17.004C132.58 18.348 133.216 20.256 133.216 22.728V31.692C133.216 34.164 132.58 36.072 131.308 37.416C130.036 38.76 128.056 39.432 125.368 39.432C122.68 39.432 120.7 38.76 119.428 37.416C118.156 36.072 117.52 34.164 117.52 31.692V22.728C117.52 20.256 118.156 18.348 119.428 17.004C120.7 15.66 122.68 14.988 125.368 14.988ZM125.368 17.688C123.784 17.688 122.584 18.084 121.768 18.876C120.976 19.668 120.58 20.832 120.58 22.368V32.016C120.58 33.552 120.976 34.728 121.768 35.544C122.584 36.336 123.784 36.732 125.368 36.732C126.952 36.732 128.14 36.336 128.932 35.544C129.748 34.728 130.156 33.552 130.156 32.016V22.404C130.156 20.868 129.748 19.704 128.932 18.912C128.14 18.096 126.952 17.688 125.368 17.688ZM151.222 39L143.446 19.092V39H140.422V15.42H145.318L152.95 35.328V15.42H155.974V39H151.222Z" fill="black"/>
</svg>
